<svg viewBox="0 0 32 32" fill="none" xmlns="http://www.w3.org/2000/svg">
<path d="M22.667 2.6665H9.33366C5.65176 2.6665 2.66699 5.65127 2.66699 9.33317V22.6665C2.66699 26.3484 5.65176 29.3332 9.33366 29.3332H22.667C26.3489 29.3332 29.3337 26.3484 29.3337 22.6665V9.33317C29.3337 5.65127 26.3489 2.6665 22.667 2.6665Z" stroke="white" stroke-width="2" stroke-linecap="round" stroke-linejoin="round"/>
<path d="M21.3336 15.1599C21.4981 16.2696 21.3086 17.4029 20.7919 18.3986C20.2753 19.3943 19.4578 20.2018 18.4558 20.7061C17.4537 21.2105 16.3182 21.386 15.2106 21.2078C14.1031 21.0296 13.0799 20.5067 12.2867 19.7135C11.4935 18.9202 10.9706 17.8971 10.7924 16.7895C10.6141 15.682 10.7897 14.5464 11.294 13.5444C11.7984 12.5424 12.6058 11.7249 13.6016 11.2082C14.5973 10.6916 15.7306 10.502 16.8403 10.6666C17.9722 10.8344 19.0201 11.3619 19.8292 12.171C20.6383 12.9801 21.1657 14.028 21.3336 15.1599Z" stroke="white" stroke-width="2" stroke-linecap="round" stroke-linejoin="round"/>
<path d="M23.9931 8.56888C24.0137 8.70759 23.99 8.84925 23.9254 8.97371C23.8608 9.09818 23.7586 9.19911 23.6334 9.26216C23.5081 9.3252 23.3662 9.34714 23.2277 9.32487C23.0893 9.30259 22.9614 9.23722 22.8623 9.13807C22.7631 9.03892 22.6977 8.91102 22.6755 8.77258C22.6532 8.63414 22.6751 8.49219 22.7382 8.36694C22.8012 8.24169 22.9021 8.1395 23.0266 8.07492C23.1511 8.01034 23.2927 7.98664 23.4314 8.00721C23.5729 8.02819 23.7039 8.09412 23.8051 8.19526C23.9062 8.2964 23.9721 8.42739 23.9931 8.56888Z" stroke="white" stroke-width="2" stroke-linecap="round" stroke-linejoin="round"/>
</svg>
