<svg viewBox="0 0 80 49" fill="none" xmlns="http://www.w3.org/2000/svg">
<path d="M4.46235 21.2343V11.4102H0V35.5428H4.46235V25.6496H10.0728V21.2343H4.46235Z" fill="#E3E2E1"/>
<path d="M56.4895 29.9732C55.3914 28.0315 54.8418 25.8652 54.8418 23.4756C54.8418 21.0861 55.3902 18.9198 56.4895 16.9768C57.5875 15.035 59.0928 13.5122 61.0041 12.4097C62.9154 11.3058 65.0265 10.7539 67.3388 10.7539C69.9009 10.7539 72.2357 11.4501 74.3419 12.8399C76.4468 14.2297 78.0383 16.1313 79.1151 18.5447L74.6517 20.1654C73.9883 18.6263 73.004 17.4196 71.6985 16.5453C70.3944 15.6723 68.9291 15.2357 67.3051 15.2357C65.0615 15.2357 63.1677 16.0172 61.6237 17.5801C60.0785 19.1431 59.3064 21.1086 59.3064 23.4744C59.3064 25.8401 60.0785 27.8069 61.6237 29.3686C63.1677 30.9315 65.0628 31.713 67.3051 31.713C68.9753 31.713 70.4743 31.2476 71.8022 30.3169C73.1301 29.3862 74.1257 28.1055 74.7891 26.4735L79.2862 28.059C78.2331 30.564 76.6366 32.5459 74.498 34.006C72.3581 35.4648 69.9709 36.1948 67.3401 36.1948C65.0278 36.1948 62.9166 35.6429 61.0054 34.5403C59.0941 33.4377 57.5888 31.9149 56.4907 29.9719" fill="#E3E2E1"/>
<path d="M12.3037 48.2615V0H21.2305V19.6495H43.6825V0H52.6093V48.2615H43.6825V28.4752H21.2305V48.2615H12.3037Z" fill="#E3E2E1"/>
</svg>
