<svg width="327" height="256" viewBox="0 0 327 256" fill="none" xmlns="http://www.w3.org/2000/svg">
<g clip-path="url(#clip0_86_1767)">
<mask id="mask0_86_1767" style="mask-type:luminance" maskUnits="userSpaceOnUse" x="-611" y="-180" width="1093" height="616">
<path d="M481.114 -179.199H-610.781V435.201H481.114V-179.199Z" fill="white"/>
</mask>
<g mask="url(#mask0_86_1767)">
<path d="M98.4172 226.46C99.6456 226.46 100.618 226.034 101.335 225.186C102.051 224.338 102.404 223.144 102.404 221.602C102.404 220.06 102.045 218.871 101.335 218.035C100.618 217.193 99.6456 216.772 98.4172 216.772C97.1888 216.772 96.2106 217.193 95.4884 218.035C94.7661 218.877 94.4022 220.066 94.4022 221.602C94.4022 223.138 94.7661 224.333 95.4884 225.186C96.2106 226.039 97.1888 226.46 98.4172 226.46ZM91.8828 233.162V214.952H94.3225V217.91H94.1861C94.5273 216.914 95.1244 216.135 95.9775 215.56C96.8248 214.991 97.8428 214.707 99.0143 214.707C100.186 214.707 101.278 214.991 102.176 215.56C103.069 216.129 103.769 216.926 104.263 217.95C104.758 218.974 105.008 220.191 105.008 221.602C105.008 223.013 104.764 224.213 104.275 225.254C103.786 226.295 103.097 227.097 102.199 227.666C101.306 228.235 100.243 228.52 99.0143 228.52C97.8769 228.52 96.8874 228.235 96.0571 227.666C95.2268 227.097 94.6354 226.352 94.2941 225.431H94.459V233.162H91.8828Z" fill="white"/>
<path d="M115.457 228.522C113.973 228.522 112.699 228.249 111.63 227.697C110.561 227.145 109.742 226.354 109.173 225.325C108.605 224.295 108.32 223.066 108.32 221.633C108.32 220.199 108.593 219.078 109.134 218.037C109.674 216.996 110.447 216.183 111.437 215.597C112.432 215.011 113.581 214.715 114.883 214.715C116.185 214.715 117.232 214.988 118.125 215.528C119.017 216.069 119.706 216.843 120.183 217.832C120.661 218.828 120.906 220.011 120.906 221.388V222.258H110.299V220.574H119.171L118.71 221.035C118.71 219.607 118.386 218.509 117.732 217.753C117.084 216.996 116.151 216.615 114.94 216.615C114.093 216.615 113.353 216.808 112.728 217.201C112.102 217.588 111.624 218.134 111.289 218.845C110.953 219.55 110.789 220.392 110.789 221.371V221.587C110.789 222.674 110.97 223.572 111.329 224.289C111.693 225.006 112.222 225.546 112.927 225.916C113.632 226.286 114.479 226.474 115.475 226.474C116.237 226.474 116.982 226.366 117.727 226.15C118.466 225.933 119.165 225.552 119.814 225.012L120.655 226.832C120.001 227.395 119.211 227.816 118.267 228.107C117.328 228.397 116.384 228.539 115.446 228.539" fill="white"/>
<path d="M130.811 228.522C129.452 228.522 128.275 228.237 127.274 227.668C126.268 227.1 125.5 226.292 124.954 225.239C124.414 224.187 124.141 222.969 124.141 221.576C124.141 220.182 124.414 218.942 124.954 217.912C125.494 216.882 126.268 216.092 127.274 215.54C128.281 214.988 129.458 214.715 130.811 214.715C131.699 214.715 132.552 214.863 133.376 215.164C134.201 215.46 134.883 215.864 135.424 216.37L134.553 218.242C134.047 217.793 133.479 217.44 132.859 217.195C132.233 216.951 131.625 216.831 131.028 216.831C129.668 216.831 128.616 217.241 127.866 218.066C127.115 218.89 126.74 220.062 126.74 221.581C126.74 223.1 127.115 224.284 127.866 225.12C128.616 225.962 129.668 226.383 131.028 226.383C131.608 226.383 132.205 226.269 132.83 226.041C133.456 225.814 134.019 225.467 134.525 224.995L135.395 226.866C134.872 227.373 134.195 227.777 133.359 228.072C132.529 228.368 131.676 228.522 130.811 228.522Z" fill="white"/>
</g>
<path d="M141.546 228.273V217.037H136.695V214.949H149.036V217.037H144.151V228.273H141.546Z" fill="white"/>
<mask id="mask1_86_1767" style="mask-type:luminance" maskUnits="userSpaceOnUse" x="-611" y="-180" width="1093" height="616">
<path d="M481.114 -179.199H-610.781V435.201H481.114V-179.199Z" fill="white"/>
</mask>
<g mask="url(#mask1_86_1767)">
<path d="M157.576 226.43C158.805 226.43 159.777 226.003 160.494 225.156C161.21 224.308 161.568 223.119 161.568 221.6C161.568 220.081 161.21 218.875 160.494 218.045C159.777 217.214 158.81 216.799 157.576 216.799C156.342 216.799 155.375 217.214 154.659 218.045C153.942 218.875 153.584 220.064 153.584 221.6C153.584 223.136 153.942 224.302 154.659 225.156C155.375 226.003 156.342 226.43 157.576 226.43ZM157.576 228.518C156.24 228.518 155.074 228.233 154.09 227.665C153.106 227.096 152.344 226.288 151.81 225.252C151.275 224.211 151.008 222.994 151.008 221.6C151.008 220.206 151.275 218.995 151.81 217.965C152.344 216.935 153.101 216.133 154.09 215.564C155.074 214.995 156.24 214.711 157.576 214.711C158.913 214.711 160.078 214.995 161.062 215.564C162.046 216.133 162.808 216.935 163.343 217.965C163.877 218.995 164.145 220.206 164.145 221.6C164.145 222.994 163.877 224.211 163.343 225.252C162.808 226.294 162.052 227.096 161.062 227.665C160.078 228.233 158.913 228.518 157.576 228.518Z" fill="white"/>
<path d="M168.271 228.273V214.949H170.848V220.405H173.236L177.547 214.949H180.339L175.266 221.463L174.698 220.729C175.221 220.786 175.676 220.917 176.051 221.122C176.432 221.332 176.79 221.628 177.137 222.015C177.478 222.402 177.842 222.925 178.223 223.574L181.044 228.267H178.252L175.863 224.307C175.59 223.835 175.323 223.465 175.062 223.192C174.8 222.919 174.499 222.726 174.152 222.606C173.81 222.487 173.384 222.43 172.878 222.43H170.842V228.267H168.266L168.271 228.273Z" fill="white"/>
<path d="M183.078 228.597L182.156 226.589C182.788 226.333 183.316 226.003 183.743 225.599C184.169 225.189 184.505 224.677 184.749 224.051C184.994 223.426 185.165 222.669 185.267 221.77C185.369 220.877 185.415 219.802 185.415 218.556V214.949H195.589V228.273H192.984V217.037H187.803V218.613C187.803 220.098 187.724 221.4 187.559 222.521C187.394 223.642 187.132 224.603 186.774 225.4C186.41 226.196 185.921 226.856 185.307 227.379C184.693 227.903 183.948 228.312 183.083 228.603" fill="white"/>
</g>
<path d="M201.96 233.159L204.508 227.379V228.87L198.594 214.949H201.363L205.759 225.991H205.321L209.746 214.949H212.43L204.645 233.159H201.96Z" fill="white"/>
<mask id="mask2_86_1767" style="mask-type:luminance" maskUnits="userSpaceOnUse" x="-611" y="-180" width="1093" height="616">
<path d="M481.114 -179.199H-610.781V435.201H481.114V-179.199Z" fill="white"/>
</mask>
<g mask="url(#mask2_86_1767)">
<path d="M221.242 226.456C222.487 226.456 223.471 226.058 224.182 225.261C224.898 224.465 225.251 223.31 225.251 221.785C225.251 220.261 224.893 219.123 224.182 218.298C223.465 217.473 222.487 217.063 221.242 217.063C219.996 217.063 219.041 217.467 218.324 218.287C217.608 219.106 217.255 220.204 217.255 221.597C217.255 223.19 217.608 224.396 218.313 225.221C219.018 226.046 219.996 226.456 221.242 226.456ZM221.327 228.515C219.968 228.515 218.791 228.225 217.79 227.645C216.783 227.064 216.015 226.211 215.47 225.079C214.929 223.947 214.656 222.57 214.656 220.943V218.907C214.656 217.968 214.73 217.092 214.872 216.29C215.015 215.488 215.248 214.748 215.566 214.077C215.879 213.405 216.306 212.808 216.829 212.273C217.352 211.739 217.989 211.272 218.74 210.874C219.49 210.476 220.372 210.14 221.384 209.867L226.155 208.621L226.94 210.709L221.543 212.069C220.059 212.467 218.944 213.144 218.194 214.105C217.443 215.061 217.068 216.267 217.068 217.712V218.662H216.851C217.068 217.922 217.414 217.28 217.881 216.733C218.353 216.193 218.927 215.766 219.604 215.459C220.281 215.152 221.054 214.998 221.924 214.998C222.794 214.998 223.59 215.152 224.313 215.459C225.035 215.766 225.661 216.216 226.184 216.802C226.707 217.388 227.122 218.093 227.418 218.907C227.714 219.72 227.867 220.642 227.867 221.671C227.867 223.065 227.594 224.271 227.042 225.295C226.491 226.319 225.729 227.11 224.762 227.668C223.795 228.231 222.652 228.509 221.333 228.509" fill="white"/>
<path d="M41.413 255.651C40.0538 255.651 38.8766 255.366 37.8757 254.797C36.8691 254.228 36.1014 253.421 35.5555 252.368C35.0152 251.316 34.7422 250.098 34.7422 248.705C34.7422 247.311 35.0152 246.071 35.5555 245.041C36.0957 244.011 36.8691 243.22 37.8757 242.669C38.8823 242.117 40.0595 241.844 41.413 241.844C42.3001 241.844 43.1532 241.992 43.9778 242.293C44.8024 242.589 45.4848 242.993 46.0251 243.499L45.155 245.371C44.6489 244.921 44.0859 244.569 43.4603 244.324C42.8348 244.079 42.2262 243.96 41.6291 243.96C40.2756 243.96 39.2179 244.37 38.4672 245.195C37.7165 246.019 37.3412 247.191 37.3412 248.71C37.3412 250.229 37.7165 251.412 38.4672 252.254C39.2179 253.096 40.2699 253.517 41.6291 253.517C42.2092 253.517 42.812 253.404 43.4319 253.176C44.0574 252.948 44.6204 252.601 45.1266 252.129L45.9967 254.001C45.4735 254.507 44.7968 254.911 43.9608 255.207C43.1305 255.503 42.2774 255.656 41.413 255.656" fill="white"/>
<path d="M55.6528 255.651C54.1685 255.651 52.8946 255.378 51.8255 254.826C50.7563 254.274 49.9374 253.483 49.3687 252.454C48.8 251.424 48.5156 250.195 48.5156 248.761C48.5156 247.408 48.7886 246.207 49.3289 245.166C49.8692 244.125 50.6426 243.311 51.6321 242.726C52.6274 242.14 53.7761 241.844 55.0784 241.844C56.3807 241.844 57.4271 242.117 58.32 242.657C59.2129 243.198 59.901 243.971 60.3787 244.961C60.8564 245.957 61.0952 247.14 61.0952 248.517V249.387H50.4891V247.703H59.3607L58.9 248.164C58.9 246.736 58.5759 245.638 57.9219 244.882C57.2736 244.125 56.3409 243.744 55.1296 243.744C54.2822 243.744 53.543 243.937 52.9174 244.33C52.2918 244.717 51.8141 245.263 51.4786 245.974C51.143 246.679 50.9781 247.521 50.9781 248.5V248.716C50.9781 249.803 51.1601 250.701 51.5184 251.418C51.8823 252.135 52.4112 252.675 53.1164 253.045C53.8216 253.415 54.669 253.603 55.6642 253.603C56.4262 253.603 57.1769 253.495 57.9162 253.278C58.6555 253.062 59.355 252.681 60.0033 252.141L60.845 253.961C60.1967 254.524 59.4005 254.945 58.4565 255.235C57.5181 255.526 56.5741 255.668 55.6357 255.668" fill="white"/>
<path d="M64.4369 255.73L63.5156 253.722C64.1469 253.466 64.6758 253.136 65.1023 252.732C65.5288 252.328 65.8644 251.81 66.1089 251.184C66.3534 250.558 66.5241 249.802 66.6264 248.903C66.7288 248.004 66.7743 246.935 66.7743 245.689V242.082H76.9482V255.405H74.3436V244.17H69.1628V245.746C69.1628 247.23 69.0832 248.533 68.9182 249.654C68.7533 250.775 68.4917 251.736 68.1334 252.533C67.7695 253.329 67.2861 253.989 66.6662 254.512C66.052 255.036 65.307 255.445 64.4426 255.735" fill="white"/>
<path d="M88.145 255.651C86.6607 255.651 85.3868 255.378 84.3177 254.826C83.2485 254.274 82.4296 253.483 81.8609 252.454C81.2922 251.424 81.0078 250.195 81.0078 248.761C81.0078 247.408 81.2808 246.207 81.8211 245.166C82.3613 244.125 83.1347 243.311 84.1243 242.726C85.1195 242.14 86.2683 241.844 87.5706 241.844C88.8729 241.844 89.9193 242.117 90.8121 242.657C91.705 243.198 92.3931 243.971 92.8708 244.961C93.3485 245.957 93.5874 247.14 93.5874 248.517V249.387H82.9812V247.703H91.8529L91.3922 248.164C91.3922 246.736 91.0681 245.638 90.4141 244.882C89.7601 244.125 88.8331 243.744 87.6217 243.744C86.7744 243.744 86.0351 243.937 85.4095 244.33C84.7839 244.717 84.3063 245.263 83.9708 245.974C83.6352 246.679 83.4703 247.521 83.4703 248.5V248.716C83.4703 249.803 83.6523 250.701 84.0105 251.418C84.3745 252.135 84.9034 252.675 85.6086 253.045C86.3138 253.415 87.1611 253.603 88.1564 253.603C88.9184 253.603 89.6691 253.495 90.4084 253.278C91.1477 253.062 91.8472 252.681 92.4955 252.141L93.3372 253.961C92.6889 254.524 91.8926 254.945 90.9486 255.235C90.0103 255.526 89.0662 255.668 88.1279 255.668" fill="white"/>
<path d="M97.6151 255.405V242.082H100.191V247.538H102.58L106.89 242.082H109.683L104.61 248.596L104.041 247.862C104.564 247.919 105.019 248.05 105.395 248.254C105.776 248.465 106.134 248.761 106.481 249.148C106.822 249.535 107.186 250.058 107.567 250.706L110.388 255.4H107.596L105.207 251.44C104.934 250.968 104.667 250.598 104.405 250.325C104.144 250.052 103.842 249.859 103.495 249.739C103.154 249.62 102.728 249.563 102.221 249.563H100.186V255.4H97.6094L97.6151 255.405Z" fill="white"/>
</g>
<path d="M115.958 255.409V244.174H111.102V242.086H123.448V244.174H118.563V255.409H115.958Z" fill="white"/>
<path d="M126.289 255.409V242.086H128.678V252.559H128.274L136.082 242.086H138.391V255.409H136.002V244.908H136.412L128.598 255.409H126.289Z" fill="white"/>
<mask id="mask3_86_1767" style="mask-type:luminance" maskUnits="userSpaceOnUse" x="-611" y="-180" width="1093" height="616">
<path d="M481.114 -179.199H-610.781V435.201H481.114V-179.199Z" fill="white"/>
</mask>
<g mask="url(#mask3_86_1767)">
<path d="M145.717 253.703H150.249C151.119 253.703 151.79 253.526 152.268 253.174C152.746 252.821 152.985 252.303 152.985 251.615C152.985 250.926 152.746 250.38 152.268 250.028C151.79 249.675 151.114 249.499 150.249 249.499H145.717V253.703ZM145.717 247.786H150.005C150.801 247.786 151.421 247.61 151.864 247.257C152.308 246.904 152.53 246.404 152.53 245.75C152.53 245.095 152.308 244.635 151.864 244.299C151.421 243.963 150.801 243.798 150.005 243.798H145.717V247.786ZM143.271 255.409V242.086H150.187C151.29 242.086 152.194 242.222 152.899 242.496C153.604 242.769 154.122 243.161 154.458 243.673C154.793 244.191 154.958 244.828 154.958 245.585C154.958 246.341 154.702 247.03 154.196 247.581C153.69 248.133 153.013 248.492 152.16 248.651V248.463C152.848 248.52 153.434 248.691 153.923 248.992C154.412 249.288 154.782 249.669 155.038 250.13C155.288 250.591 155.419 251.12 155.419 251.717C155.419 252.855 154.986 253.76 154.116 254.419C153.246 255.079 152.018 255.409 150.425 255.409H143.266H143.271Z" fill="white"/>
</g>
<path d="M159.391 255.409V242.086H161.967V247.513H169.047V242.086H171.623V255.409H169.047V249.601H161.967V255.409H159.391Z" fill="white"/>
<mask id="mask4_86_1767" style="mask-type:luminance" maskUnits="userSpaceOnUse" x="-611" y="-180" width="1093" height="616">
<path d="M481.114 -179.199H-610.781V435.201H481.114V-179.199Z" fill="white"/>
</mask>
<g mask="url(#mask4_86_1767)">
<path d="M182.272 253.567C183.5 253.567 184.472 253.14 185.189 252.292C185.906 251.445 186.258 250.256 186.258 248.737C186.258 247.218 185.9 246.012 185.189 245.181C184.472 244.351 183.5 243.935 182.272 243.935C181.043 243.935 180.071 244.351 179.354 245.181C178.638 246.012 178.279 247.201 178.279 248.737C178.279 250.273 178.638 251.439 179.354 252.292C180.071 253.146 181.038 253.567 182.272 253.567ZM182.272 255.655C180.935 255.655 179.769 255.37 178.785 254.801C177.802 254.232 177.04 253.425 176.505 252.389C175.97 251.348 175.703 250.131 175.703 248.737C175.703 247.343 175.97 246.131 176.505 245.102C177.04 244.072 177.796 243.27 178.785 242.701C179.769 242.132 180.935 241.848 182.272 241.848C183.608 241.848 184.774 242.132 185.758 242.701C186.742 243.27 187.504 244.072 188.038 245.102C188.573 246.131 188.84 247.343 188.84 248.737C188.84 250.131 188.573 251.348 188.038 252.389C187.504 253.43 186.747 254.232 185.758 254.801C184.774 255.37 183.608 255.655 182.272 255.655Z" fill="white"/>
</g>
<path d="M192.969 255.409V242.086H202.676V244.174H195.545V255.409H192.969Z" fill="white"/>
<mask id="mask5_86_1767" style="mask-type:luminance" maskUnits="userSpaceOnUse" x="-611" y="-180" width="1093" height="616">
<path d="M481.114 -179.199H-610.781V435.201H481.114V-179.199Z" fill="white"/>
</mask>
<g mask="url(#mask5_86_1767)">
<path d="M211.545 253.567C212.773 253.567 213.746 253.14 214.462 252.292C215.179 251.445 215.537 250.256 215.537 248.737C215.537 247.218 215.179 246.012 214.462 245.181C213.746 244.351 212.779 243.935 211.545 243.935C210.311 243.935 209.344 244.351 208.628 245.181C207.911 246.012 207.558 247.201 207.558 248.737C207.558 250.273 207.917 251.439 208.628 252.292C209.344 253.146 210.317 253.567 211.545 253.567ZM211.545 255.655C210.209 255.655 209.043 255.37 208.059 254.801C207.075 254.232 206.313 253.425 205.778 252.389C205.244 251.348 204.977 250.131 204.977 248.737C204.977 247.343 205.244 246.131 205.778 245.102C206.313 244.072 207.069 243.27 208.059 242.701C209.043 242.132 210.209 241.848 211.545 241.848C212.881 241.848 214.047 242.132 215.031 242.701C216.015 243.27 216.777 244.072 217.312 245.102C217.846 246.131 218.113 247.343 218.113 248.737C218.113 250.131 217.846 251.348 217.312 252.389C216.777 253.43 216.021 254.232 215.031 254.801C214.047 255.37 212.881 255.655 211.545 255.655Z" fill="white"/>
<path d="M229.859 255.409V242.086H241.956V255.409H239.379V244.174H232.436V255.409H229.859Z" fill="white"/>
<path d="M246.836 255.409V242.086H249.224V252.559H248.821L256.629 242.086H258.938V255.409H256.549V244.908H256.959L249.145 255.409H246.836Z" fill="white"/>
<path d="M266.266 253.703H270.798C271.668 253.703 272.339 253.526 272.817 253.174C273.295 252.821 273.534 252.303 273.534 251.615C273.534 250.926 273.295 250.38 272.817 250.028C272.339 249.675 271.663 249.499 270.798 249.499H266.266V253.703ZM266.266 247.786H270.554C271.35 247.786 271.97 247.61 272.413 247.257C272.857 246.904 273.079 246.404 273.079 245.75C273.079 245.095 272.857 244.635 272.413 244.299C271.97 243.963 271.35 243.798 270.554 243.798H266.266V247.786ZM263.82 255.409V242.086H270.736C271.839 242.086 272.743 242.222 273.448 242.496C274.153 242.769 274.671 243.161 275.007 243.673C275.342 244.191 275.507 244.828 275.507 245.585C275.507 246.341 275.257 247.03 274.751 247.581C274.244 248.133 273.568 248.492 272.715 248.651V248.463C273.403 248.52 273.989 248.691 274.478 248.992C274.967 249.288 275.336 249.669 275.592 250.13C275.843 250.591 275.973 251.12 275.973 251.717C275.973 252.855 275.541 253.76 274.671 254.419C273.801 255.079 272.573 255.409 270.98 255.409H263.82Z" fill="white"/>
<path d="M284.303 255.655C283.365 255.655 282.518 255.473 281.767 255.114C281.016 254.75 280.431 254.267 280.004 253.647C279.578 253.032 279.367 252.344 279.367 251.587C279.367 250.592 279.64 249.801 280.18 249.215C280.721 248.629 281.579 248.208 282.757 247.969C283.934 247.725 285.481 247.605 287.397 247.605H288.995V249.261H287.477C286.465 249.261 285.6 249.295 284.884 249.369C284.167 249.443 283.598 249.556 283.177 249.721C282.751 249.886 282.438 250.108 282.239 250.387C282.04 250.666 281.938 251.018 281.938 251.434C281.938 252.139 282.194 252.702 282.711 253.118C283.229 253.533 283.917 253.743 284.787 253.743C285.509 253.743 286.157 253.573 286.726 253.243C287.295 252.907 287.75 252.452 288.085 251.872C288.421 251.292 288.586 250.649 288.586 249.943V246.849C288.586 245.802 288.33 245.045 287.824 244.584C287.318 244.124 286.521 243.89 285.435 243.89C284.656 243.89 283.883 244.004 283.115 244.232C282.347 244.459 281.557 244.818 280.743 245.301L279.93 243.458C280.436 243.117 281.005 242.826 281.642 242.588C282.273 242.354 282.933 242.172 283.61 242.047C284.286 241.922 284.952 241.859 285.606 241.859C286.8 241.859 287.801 242.047 288.614 242.417C289.427 242.787 290.042 243.356 290.457 244.129C290.872 244.897 291.082 245.898 291.082 247.127V255.433H288.751V252.475H288.859C288.677 253.089 288.375 253.641 287.949 254.13C287.522 254.62 287.005 255.001 286.391 255.268C285.776 255.541 285.077 255.672 284.303 255.672" fill="white"/>
<path d="M326.585 84.8253H296.7V93.6601H316.098C315.393 97.4887 313.505 100.595 310.44 102.984C307.369 105.374 303.746 106.568 299.572 106.568C294.744 106.568 290.626 104.867 287.231 101.471C283.836 98.0747 282.136 93.7568 282.136 88.523C282.136 83.2893 283.836 78.9714 287.231 75.5751C290.626 72.1789 294.744 70.4779 299.572 70.4779C302.944 70.4779 306.009 71.3483 308.779 73.0834C311.543 74.8185 313.658 77.2249 315.12 80.2912L323.878 75.7629C321.66 71.0809 318.379 67.3945 314.028 64.7037C309.677 62.0128 304.855 60.6646 299.578 60.6646C295.853 60.6646 292.332 61.3586 289.011 62.741C285.69 64.1234 282.795 66.0235 280.333 68.4413C277.87 70.859 275.92 73.8173 274.487 77.3102C273.054 80.8089 272.337 84.5465 272.337 88.523C272.337 92.4996 273.054 96.2372 274.487 99.7359C275.92 103.235 277.87 106.193 280.333 108.605C282.801 111.023 285.69 112.923 289.011 114.305C292.332 115.687 295.853 116.382 299.578 116.382C304.559 116.382 309.126 115.238 313.277 112.945C317.429 110.653 320.722 107.461 323.161 103.36C325.601 99.258 326.824 94.667 326.824 89.5812C326.824 87.4706 326.75 85.8834 326.596 84.8253M255.259 99.4685L232.09 62.1721H220.768V115.022H230.583V77.498L253.752 115.022H265.075V62.1721H255.259V99.4685ZM212.015 62.1721H202.205V115.022H212.015V62.1721ZM169.676 115.022H187.738V105.356H179.486V71.8375H195.563V62.1721H146.735L140.019 100.527L123.941 62.1721H112.09L102.809 115.022H112.772L119.489 76.4398L135.486 115.022H147.338L154.924 71.8375H169.676V115.022ZM75.0963 115.852C81.3349 115.852 86.5669 113.776 90.798 109.623C95.0234 105.47 97.1389 100.225 97.1389 93.882V62.1721H87.3289V93.1254C87.3289 97.1531 86.1858 100.31 83.894 102.597C81.6021 104.89 78.6734 106.033 75.102 106.033C71.5306 106.033 68.5961 104.89 66.3099 102.597C64.0181 100.31 62.875 97.1474 62.875 93.1254V62.1721H53.065V93.882C53.065 100.225 55.1805 105.47 59.4059 109.623C63.6313 113.776 68.8633 115.852 75.1076 115.852M34.4914 83.6932H9.81V62.1778H0V115.028H9.81V93.3586H34.4914V115.028H44.3014V62.1778H34.4914V83.6932ZM208.336 28.9547H220.637C223.452 28.9547 225.818 28.1014 227.734 26.389C229.645 24.6767 230.6 22.5661 230.6 20.0459C230.6 17.5257 229.656 15.5289 227.768 13.8905C225.88 12.2578 223.503 11.4386 220.637 11.4386H208.336V28.9547ZM208.336 54.623H198.526V1.77887H221.393C226.83 1.77887 231.357 3.51398 234.979 6.9899C238.602 10.4601 240.416 14.8178 240.416 20.0516C240.416 25.2854 238.488 29.626 234.638 33.2271C230.788 36.8281 226.125 38.6258 220.643 38.6258H208.342V54.6286L208.336 54.623ZM95.0575 32.9597H119.733V54.6286H129.543V1.78457H119.733V23.2999H95.0575V1.78457H85.2475V54.6286H95.0575V32.9597ZM146.451 30.0128C146.451 34.746 147.958 38.6201 150.977 41.6409C153.997 44.6617 157.819 46.1693 162.448 46.1693C167.731 46.1693 172.235 44.1952 175.96 40.2414C179.685 36.2934 181.545 31.5716 181.545 26.0875C181.545 21.4112 180.038 17.5712 177.018 14.5732C173.998 11.5808 170.176 10.079 165.547 10.079C160.264 10.079 155.76 12.0132 152.035 15.893C148.31 19.7728 146.451 24.4775 146.451 30.0128ZM143.999 48.661C139.092 43.7799 136.641 37.6644 136.641 30.3143C136.641 24.8758 137.926 19.8582 140.491 15.2502C143.055 10.6422 146.576 6.99558 151.057 4.30474C155.538 1.6139 160.389 0.265625 165.621 0.265625C172.969 0.265625 179.105 2.6834 184.036 7.51326C188.966 12.3431 191.434 18.4359 191.434 25.786C191.434 31.1222 190.138 36.117 187.544 40.7705C184.951 45.424 181.42 49.1275 176.938 51.8695C172.457 54.6173 167.578 55.9826 162.294 55.9826C154.998 55.9826 148.896 53.5421 143.994 48.661M243.76 160.095C243.76 158.235 243.106 156.687 241.798 155.453C240.49 154.218 238.881 153.604 236.97 153.604H220.745V165.761H237.425C239.239 165.761 240.746 165.221 241.952 164.14C243.157 163.059 243.766 161.711 243.766 160.101M220.739 144.24H236.964C238.676 144.24 240.109 143.609 241.263 142.351C242.424 141.094 242.998 139.558 242.998 137.743C242.998 136.133 242.407 134.814 241.224 133.778C240.041 132.748 238.517 132.231 236.657 132.231H220.734V144.234L220.739 144.24ZM251.568 153.866C252.905 156.107 253.57 158.61 253.57 161.375C253.57 165.351 252.109 168.685 249.191 171.376C246.274 174.067 242.651 175.415 238.323 175.415H210.924V122.565H237.567C241.94 122.565 245.58 123.862 248.475 126.451C251.364 129.045 252.814 132.327 252.814 136.304C252.814 138.921 252.211 141.339 251.005 143.552C249.794 145.765 248.133 147.477 246.023 148.683C248.389 149.889 250.237 151.619 251.568 153.854M192.361 153.53C192.361 157.558 191.218 160.715 188.926 163.002C186.635 165.295 183.706 166.438 180.134 166.438C176.563 166.438 173.628 165.295 171.342 163.002C169.05 160.715 167.907 157.552 167.907 153.53V122.577H158.097V154.287C158.097 160.63 160.213 165.875 164.438 170.028C168.664 174.181 173.896 176.257 180.14 176.257C186.384 176.257 191.611 174.181 195.836 170.028C200.067 165.875 202.177 160.63 202.177 154.287V122.577H192.361V153.53ZM95.5011 163.907C92.5837 165.943 89.2909 166.967 85.6172 166.967C80.6866 166.967 76.5237 165.255 73.1286 161.836C69.7334 158.411 68.0331 154.11 68.0331 148.928C68.0331 143.745 69.7334 139.439 73.1286 136.02C76.5237 132.595 80.6866 130.888 85.6172 130.888C89.1886 130.888 92.4074 131.844 95.2793 133.755C98.1455 135.667 100.312 138.312 101.768 141.686L111.578 138.136C109.212 132.851 105.715 128.687 101.086 125.643C96.4565 122.599 91.3269 121.075 85.6911 121.075C80.607 121.075 75.9663 122.281 71.7637 124.699C67.561 127.116 64.2512 130.45 61.84 134.7C59.423 138.955 58.2174 143.7 58.2174 148.933C58.2174 154.167 59.423 158.912 61.84 163.167C64.2569 167.422 67.5667 170.756 71.7637 173.168C75.9663 175.586 80.607 176.792 85.6911 176.792C91.4747 176.792 96.7237 175.193 101.427 171.996C106.13 168.799 109.639 164.458 111.953 158.974L102.069 155.504C100.608 159.077 98.4185 161.881 95.5011 163.924M127.098 165.835H154.418L152.683 175.427H115.474L124.908 122.577H134.792L127.092 165.835H127.098Z" fill="white"/>
</g>
</g>
<defs>
<clipPath id="clip0_86_1767">
<rect width="327" height="256" fill="white"/>
</clipPath>
</defs>
</svg>
