<svg viewBox="0 0 32 32" fill="none" xmlns="http://www.w3.org/2000/svg">
<path fill-rule="evenodd" clip-rule="evenodd" d="M4.53366 4.53317C2.66699 6.41761 2.66699 9.43095 2.66699 15.4665V16.5332C2.66699 22.5598 2.66699 25.5732 4.53366 27.4665C6.4181 29.3332 9.43144 29.3332 15.467 29.3332H16.5337C22.5603 29.3332 25.5737 29.3332 27.467 27.4665C29.3337 25.5821 29.3337 22.5687 29.3337 16.5332V15.4665C29.3337 9.43984 29.3337 6.4265 27.467 4.53317C25.5825 2.6665 22.5692 2.6665 16.5337 2.6665H15.467C9.44032 2.6665 6.42699 2.6665 4.53366 4.53317ZM7.16477 10.7821C7.30699 17.7154 10.7737 21.8754 16.8537 21.8754H17.2092V17.9109C19.4403 18.1332 21.1292 19.7687 21.8048 21.8754H24.9603C24.6367 20.6783 24.0629 19.5634 23.2769 18.6043C22.4909 17.6451 21.5105 16.8635 20.4003 16.311C21.3951 15.7051 22.2543 14.9007 22.9242 13.9479C23.5941 12.995 24.0603 11.9143 24.2937 10.7732H21.4314C20.8092 12.9776 18.9603 14.9776 17.2092 15.1643V10.7821H14.3381V18.4621C12.5603 18.0176 10.3203 15.8665 10.2225 10.7821H7.16477Z" fill="white"/>
</svg>
